<svg width="69" height="69" viewBox="0 0 69 69" fill="none" xmlns="http://www.w3.org/2000/svg">
<path fill-rule="evenodd" clip-rule="evenodd" d="M34.5 0C25.1298 0 23.9554 0.04002 20.2763 0.207C16.6042 0.37536 14.0953 0.95772 11.9011 1.81056C9.6324 2.69238 7.70868 3.87228 5.79048 5.79048C3.87228 7.70868 2.69238 9.6324 1.81056 11.9011C0.95772 14.0953 0.37536 16.6042 0.207 20.2763C0.04002 23.9554 0 25.1298 0 34.5C0 43.8702 0.04002 45.0446 0.207 48.7237C0.37536 52.3958 0.95772 54.9047 1.81056 57.0989C2.69238 59.3676 3.87228 61.2913 5.79048 63.2095C7.70868 65.1277 9.6324 66.3076 11.9011 67.1894C14.0953 68.0423 16.6042 68.6246 20.2763 68.793C23.9554 68.96 25.1298 69 34.5 69C43.8702 69 45.0446 68.96 48.7237 68.793C52.3958 68.6246 54.9047 68.0423 57.0989 67.1894C59.3676 66.3076 61.2913 65.1277 63.2095 63.2095C65.1277 61.2913 66.3076 59.3676 67.1894 57.0989C68.0423 54.9047 68.6246 52.3958 68.793 48.7237C68.96 45.0446 69 43.8702 69 34.5C69 25.1298 68.96 23.9554 68.793 20.2763C68.6246 16.6042 68.0423 14.0953 67.1894 11.9011C66.3076 9.6324 65.1277 7.70868 63.2095 5.79048C61.2913 3.87228 59.3676 2.69238 57.0989 1.81056C54.9047 0.95772 52.3958 0.37536 48.7237 0.207C45.0446 0.04002 43.8702 0 34.5 0ZM35 7C44.1193 7 45.2 7.03415 48.8012 7.1981C52.132 7.34974 53.9394 7.90715 55.1431 8.37438C56.7374 8.99463 57.8754 9.73374 59.0708 10.9292C60.2663 12.1246 61.0054 13.2626 61.6256 14.8569C62.0928 16.0606 62.6503 17.868 62.8019 21.1988C62.9658 24.8 63 25.8807 63 35C63 44.1193 62.9658 45.2 62.8019 48.8012C62.6503 52.132 62.0928 53.9394 61.6256 55.1431C61.0054 56.7374 60.2663 57.8754 59.0708 59.0708C57.8754 60.2663 56.7374 61.0054 55.1431 61.6256C53.9394 62.0928 52.132 62.6503 48.8012 62.8019C45.2 62.9658 44.1207 63 35 63C25.8793 63 24.8 62.9658 21.1988 62.8019C17.868 62.6503 16.0606 62.0928 14.8569 61.6256C13.2626 61.0054 12.1246 60.2663 10.9292 59.0708C9.73374 57.8754 8.99463 56.7374 8.37438 55.1431C7.90715 53.9394 7.34974 52.132 7.1981 48.8012C7.03415 45.2 7 44.1193 7 35C7 25.8807 7.03415 24.8 7.1981 21.1988C7.34974 17.868 7.90715 16.0606 8.37438 14.8569C8.99463 13.2626 9.73374 12.1246 10.9292 10.9292C12.1246 9.73374 13.2626 8.99463 14.8569 8.37438C16.0606 7.90715 17.868 7.34974 21.1988 7.1981C24.8 7.03415 25.8807 7 35 7Z" fill="#AA1924"/>
<path fill-rule="evenodd" clip-rule="evenodd" d="M35 46C28.9251 46 24 41.0752 24 35.0007C24 28.9248 28.9251 24 35 24C41.0749 24 46 28.9248 46 35.0007C46 41.0752 41.0749 46 35 46ZM34.5 17C24.8353 17 17 24.8353 17 34.5C17 44.1647 24.8353 52 34.5 52C44.1647 52 52 44.1647 52 34.5C52 24.8353 44.1647 17 34.5 17Z" fill="#AA1924"/>
<path fill-rule="evenodd" clip-rule="evenodd" d="M57 16.5C57 18.9855 55.2093 21 53 21C50.7907 21 49 18.9855 49 16.5C49 14.0145 50.7907 12 53 12C55.2093 12 57 14.0145 57 16.5Z" fill="#AA1924"/>
</svg>
