<svg width="565" height="415" viewBox="0 0 565 415" fill="none" xmlns="http://www.w3.org/2000/svg">
<path fill-rule="evenodd" clip-rule="evenodd" d="M132.549 75.6027C128.416 73.1985 122.694 73.5318 116.387 77.1757C115.659 77.5971 114.937 78.0678 114.218 78.5632L104.177 72.7226C99.4678 69.9826 92.9496 70.3599 85.768 74.5108C72.076 82.4223 60.8754 101.193 60.0229 117.204C59.1613 117.568 58.2997 117.999 57.4148 118.51C46.6224 124.747 37.8601 139.923 37.8951 152.348C37.9133 158.514 40.0977 162.859 43.6165 164.906L56.469 172.381C52.9501 170.334 50.7657 165.99 50.7476 159.824C50.7126 147.397 59.4735 132.222 70.2673 125.985C71.1522 125.475 72.0138 125.043 72.8754 124.68C73.7279 108.669 84.9284 89.8981 98.6205 81.9853C104.255 78.7292 109.467 77.8266 113.732 78.8991C112.675 79.6525 111.632 80.4746 110.615 81.3707L123.468 88.8452C125.328 87.2074 127.273 85.7887 129.24 84.6515C135.547 81.0076 141.267 80.6743 145.401 83.0785L132.549 75.6027Z" fill="#CDCDCD"/>
<path fill-rule="evenodd" clip-rule="evenodd" d="M98.62 81.9858C110.297 75.2375 120.219 78.4638 123.467 88.8456C125.329 87.2065 127.272 85.7892 129.239 84.6519C141.778 77.4057 151.999 83.2488 152.041 97.67C152.081 112.077 141.927 129.695 129.388 136.94L70.3938 171.03C59.6014 177.266 50.7822 172.236 50.7472 159.823C50.7122 147.398 59.4744 132.222 70.2669 125.986C71.1518 125.474 72.0133 125.043 72.8749 124.679C73.7274 108.669 84.928 89.8973 98.62 81.9858Z" fill="#F0F0F0"/>
<path fill-rule="evenodd" clip-rule="evenodd" d="M562.807 203.814C562.814 206.74 560.884 209.672 557.019 211.907L246.515 391.333C238.835 395.772 226.423 395.772 218.792 391.333L8.34427 268.928C4.55331 266.722 2.65653 263.837 2.64746 260.947L2.70447 280.938C2.71224 283.827 4.61031 286.713 8.40127 288.918L218.848 411.324C226.479 415.763 238.891 415.763 246.572 411.324L557.076 231.897C560.941 229.663 562.871 226.731 562.864 223.804L562.807 203.814Z" fill="#CBCBCB"/>
<path fill-rule="evenodd" clip-rule="evenodd" d="M562.807 192.167C562.814 195.094 560.884 198.026 557.019 200.26L246.515 379.687C238.835 384.125 226.423 384.125 218.792 379.687L8.34427 257.281C4.55331 255.075 2.65653 252.19 2.64746 249.301L2.70447 269.291C2.71224 272.181 4.61031 275.066 8.40127 277.272L218.848 399.677C226.479 404.116 238.891 404.116 246.572 399.677L557.076 220.251C560.941 218.016 562.871 215.085 562.864 212.158L562.807 192.167Z" fill="#D9D9D9"/>
<path fill-rule="evenodd" clip-rule="evenodd" d="M557.019 200.26L246.515 379.687C238.835 384.125 226.423 384.125 218.792 379.687L8.34431 257.28C4.76713 255.2 2.89756 252.512 2.68896 249.786L2.70451 255.234C2.71229 258.123 4.61036 261.01 8.40132 263.214L218.848 385.62C226.479 390.059 238.891 390.059 246.572 385.62L557.076 206.193C560.73 204.081 562.632 201.346 562.825 198.58L562.807 192.167C562.814 195.095 560.884 198.027 557.019 200.26Z" fill="#F2F2F2"/>
<path fill-rule="evenodd" clip-rule="evenodd" d="M8.43523 241.208C0.754843 245.647 0.713384 252.843 8.34454 257.281L218.791 379.687C226.422 384.126 238.834 384.126 246.516 379.687L557.019 200.259C564.7 195.822 564.741 188.626 557.11 184.187L346.663 61.7803C339.031 57.3428 326.619 57.3428 318.939 61.7803L8.43523 241.208Z" fill="#F0F0F0"/>
<mask id="mask0_0_877" style="mask-type:luminance" maskUnits="userSpaceOnUse" x="2" y="58" width="561" height="325">
<path fill-rule="evenodd" clip-rule="evenodd" d="M318.938 61.7757L8.43523 240.935C0.754843 245.367 0.713384 252.552 8.34454 256.983L218.791 379.207C226.423 383.64 238.834 383.64 246.514 379.207L557.019 200.047C564.7 195.616 564.741 188.43 557.11 183.999L346.663 61.7757C342.847 59.559 337.837 58.4519 332.82 58.4519C327.802 58.4519 322.779 59.559 318.938 61.7757Z" fill="white"/>
</mask>
<g mask="url(#mask0_0_877)">
<path fill-rule="evenodd" clip-rule="evenodd" d="M429.427 332.754L348.128 285.846L506.944 193.608L552.946 220.15L466.003 270.646L501.299 291.012L429.427 332.754ZM387.245 351.625L246.247 270.27L354.591 207.346L246.837 145.172L275.731 128.391L323.71 156.075L360.867 134.494L404.921 243.195L323.591 290.432L429.646 351.625H387.245ZM287.18 351.626L196.377 299.233L237.953 275.086L370.606 351.625L287.18 351.626ZM233.346 194.882L269.733 173.749L327.961 207.346L291.574 228.479L233.346 194.882ZM334.632 94.1836L374.263 117.05L323.657 146.443L284.025 123.575L334.632 94.1836ZM382.61 121.867L498.597 188.791L420.566 234.11L376.513 125.408L382.61 121.867ZM702.733 407.239L718.923 397.836L498.491 270.646L569.244 229.553L603.75 249.464L617.023 241.756L296.762 56.9666L283.49 64.6746L321.274 86.4755L220.207 145.174L256.376 166.042L151.458 226.975L69.31 179.576L56.039 187.284L125.979 227.639L30.3535 283.176L38.6998 287.992L134.325 232.455L151.545 242.39L225.052 199.699L283.279 233.295L107.003 335.674L120.361 343.381L188.085 304.048L282.345 358.436H382.409L418.832 379.452L427.124 374.637L399.047 358.436H441.45L560.321 427.024L576.511 417.622L473.935 358.436L545.946 358.434L545.915 351.625H462.132L437.781 337.575L509.654 295.832L702.733 407.239Z" fill="white"/>
</g>
<mask id="mask1_0_877" style="mask-type:luminance" maskUnits="userSpaceOnUse" x="2" y="58" width="561" height="325">
<path fill-rule="evenodd" clip-rule="evenodd" d="M318.938 61.7757L8.43523 240.935C0.754843 245.367 0.713384 252.552 8.34454 256.983L218.791 379.207C226.423 383.64 238.834 383.64 246.514 379.207L557.019 200.047C564.7 195.616 564.741 188.43 557.11 183.999L346.663 61.7757C342.847 59.559 337.837 58.4519 332.82 58.4519C327.802 58.4519 322.779 59.559 318.938 61.7757Z" fill="white"/>
</mask>
<g mask="url(#mask1_0_877)">
<path fill-rule="evenodd" clip-rule="evenodd" d="M287.181 351.626L196.378 299.232L237.954 275.085L370.605 351.626H287.181ZM429.426 332.755L348.129 285.845L506.945 193.608L552.947 220.151L466.002 270.646L501.3 291.011L429.426 332.755ZM291.573 228.479L233.345 194.883L269.733 173.75L327.96 207.347L291.573 228.479ZM387.245 351.626L246.246 270.27L354.59 207.345L246.838 145.172L275.731 128.391L323.709 156.074L360.866 134.495L404.922 243.196L323.591 290.431L429.646 351.625L387.245 351.626ZM420.565 234.11L376.512 125.408L382.609 121.866L498.597 188.792L420.565 234.11ZM323.656 146.442L284.024 123.574L334.631 94.1831L374.263 117.051L323.656 146.442ZM296.762 56.9661L283.489 64.6741L321.273 86.4763L220.208 145.173L256.375 166.042L151.457 226.976L69.3092 179.577L56.0382 187.283L125.978 227.639L30.354 283.176L38.7003 287.992L134.326 232.454L151.544 242.391L225.052 199.699L283.279 233.296L107.004 335.674L120.361 343.382L188.084 304.049L282.344 358.437L382.408 358.435L418.833 379.453L427.125 374.636L399.048 358.435H441.449L560.322 427.023L576.51 417.622L473.934 358.435H545.947L545.914 351.625L462.131 351.626L437.781 337.574L509.654 295.832L702.733 407.238L718.924 397.835L498.49 270.645L569.243 229.554L603.75 249.464L617.023 241.756L296.762 56.9661ZM287.181 353.568H370.605C371.485 353.568 372.256 352.978 372.482 352.128C372.71 351.279 372.339 350.383 371.577 349.944L238.926 273.403C238.625 273.23 238.289 273.143 237.954 273.143C237.617 273.143 237.279 273.231 236.977 273.406L195.401 297.553C194.801 297.901 194.433 298.542 194.434 299.235C194.434 299.929 194.805 300.568 195.406 300.914L286.209 353.308C286.504 353.479 286.84 353.568 287.181 353.568ZM429.426 334.697C429.764 334.697 430.101 334.609 430.403 334.433L502.275 292.691C502.875 292.342 503.243 291.702 503.243 291.009C503.242 290.316 502.871 289.676 502.272 289.329L469.88 270.64L553.922 221.83C554.522 221.482 554.89 220.841 554.89 220.148C554.889 219.454 554.518 218.815 553.919 218.469L507.917 191.925C507.616 191.752 507.28 191.666 506.945 191.666C506.608 191.666 506.27 191.753 505.968 191.929L347.152 284.166C346.552 284.514 346.184 285.155 346.185 285.849C346.185 286.542 346.556 287.181 347.157 287.527L428.454 334.437C428.756 334.611 429.092 334.697 429.426 334.697ZM291.573 230.422C291.91 230.422 292.248 230.333 292.55 230.159L328.937 209.026C329.535 208.678 329.905 208.037 329.903 207.344C329.902 206.65 329.532 206.01 328.932 205.665L270.704 172.067C270.404 171.894 270.068 171.808 269.733 171.808C269.396 171.808 269.058 171.894 268.756 172.07L232.37 193.203C231.77 193.552 231.401 194.192 231.402 194.885C231.403 195.578 231.774 196.218 232.374 196.565L290.601 230.161C290.902 230.335 291.237 230.422 291.573 230.422ZM350.712 207.35L245.269 268.59C244.67 268.939 244.301 269.579 244.302 270.272C244.304 270.965 244.674 271.605 245.274 271.952L386.273 353.308C386.568 353.477 386.904 353.568 387.245 353.568L429.646 353.567C430.526 353.567 431.295 352.976 431.522 352.127C431.75 351.278 431.38 350.382 430.618 349.943L327.469 290.426L405.898 244.876C406.734 244.39 407.086 243.363 406.723 242.467L362.668 133.766C362.456 133.244 362.028 132.839 361.496 132.657C361.291 132.587 361.078 132.553 360.866 132.553C360.526 132.553 360.19 132.641 359.89 132.815L323.706 153.83L276.703 126.709C276.402 126.535 276.067 126.449 275.731 126.449C275.393 126.449 275.056 126.537 274.754 126.713L245.861 143.492C245.261 143.841 244.893 144.482 244.894 145.174C244.896 145.868 245.265 146.508 245.866 146.854L350.712 207.35ZM420.565 236.053C420.905 236.053 421.243 235.963 421.542 235.79L499.573 190.47C500.173 190.122 500.541 189.481 500.541 188.788C500.539 188.095 500.169 187.456 499.569 187.108L383.581 120.184C383.28 120.011 382.944 119.924 382.609 119.924C382.272 119.924 381.935 120.012 381.633 120.187L375.535 123.728C374.699 124.214 374.348 125.241 374.711 126.137L418.764 234.839C418.975 235.361 419.403 235.765 419.937 235.948C420.141 236.018 420.354 236.053 420.565 236.053ZM323.656 148.384C323.994 148.384 324.331 148.296 324.633 148.121L375.239 118.73C375.838 118.382 376.207 117.741 376.206 117.048C376.205 116.354 375.835 115.715 375.234 115.369L335.603 92.5011C335.302 92.3276 334.967 92.2409 334.631 92.2409C334.294 92.2409 333.956 92.3289 333.654 92.5037L283.048 121.895C282.449 122.243 282.08 122.884 282.081 123.577C282.082 124.271 282.453 124.91 283.053 125.256L322.684 148.124C322.985 148.298 323.32 148.384 323.656 148.384ZM296.766 59.2113L613.145 241.762L603.747 247.219L570.215 227.872C569.914 227.699 569.579 227.612 569.243 227.612C568.906 227.612 568.568 227.7 568.266 227.875L497.514 268.966C496.914 269.314 496.546 269.956 496.546 270.649C496.548 271.342 496.918 271.981 497.518 272.328L715.046 397.841L702.73 404.994L510.626 294.15C510.325 293.977 509.99 293.89 509.654 293.89C509.316 293.89 508.979 293.978 508.677 294.153L436.804 335.895C436.204 336.243 435.837 336.884 435.838 337.577C435.838 338.271 436.208 338.911 436.81 339.256L461.159 353.308C461.455 353.477 461.79 353.568 462.131 353.568L543.98 353.567L543.994 356.493H473.934C473.054 356.493 472.285 357.083 472.057 357.933C471.83 358.782 472.2 359.678 472.962 360.117L572.634 417.627L560.318 424.779L442.421 356.753C442.125 356.582 441.791 356.493 441.449 356.493H399.048C398.168 356.493 397.398 357.083 397.17 357.933C396.942 358.782 397.314 359.678 398.076 360.117L423.247 374.641L418.829 377.208L383.38 356.753C383.084 356.584 382.75 356.493 382.408 356.493L282.865 356.494L189.056 302.367C188.756 302.193 188.42 302.107 188.084 302.107C187.748 302.107 187.411 302.193 187.109 302.37L120.358 341.136L110.88 335.668L284.255 234.975C284.855 234.627 285.224 233.986 285.223 233.293C285.222 232.601 284.851 231.961 284.251 231.614L226.024 198.017C225.723 197.844 225.388 197.757 225.052 197.757C224.714 197.757 224.377 197.844 224.075 198.02L151.542 240.146L135.297 230.772C134.995 230.599 134.66 230.512 134.326 230.512C133.987 230.512 133.651 230.6 133.349 230.775L38.6964 285.748L34.2305 283.17L126.955 229.318C127.555 228.97 127.923 228.329 127.921 227.636C127.92 226.944 127.551 226.303 126.95 225.957L59.916 187.278L69.3131 181.82L150.486 228.658C150.788 228.832 151.122 228.918 151.457 228.918C151.796 228.918 152.132 228.83 152.434 228.655L257.352 167.721C257.95 167.373 258.32 166.732 258.318 166.039C258.317 165.346 257.946 164.706 257.347 164.36L224.084 145.168L322.25 88.1557C322.849 87.8074 323.218 87.1665 323.217 86.4724C323.215 85.7797 322.845 85.1401 322.245 84.7943L287.367 64.669L296.766 59.2113Z" fill="white"/>
</g>
<path fill-rule="evenodd" clip-rule="evenodd" d="M440.248 167.915L440.211 180.939L431.833 185.813L431.871 172.789L440.248 167.915Z" fill="#EAEAEA"/>
<path fill-rule="evenodd" clip-rule="evenodd" d="M431.871 172.788L431.835 185.813L404.575 170.058L404.611 157.034L431.871 172.788Z" fill="#CDCDCD"/>
<path fill-rule="evenodd" clip-rule="evenodd" d="M440.249 167.915L431.871 172.789L404.612 157.034L412.989 152.16L440.249 167.915Z" fill="white"/>
<path fill-rule="evenodd" clip-rule="evenodd" d="M180.578 169.635L180.541 182.659L160.007 170.792L160.044 157.768L180.578 169.635Z" fill="#CDCDCD"/>
<path fill-rule="evenodd" clip-rule="evenodd" d="M185.836 184.363L185.799 197.387L170.462 188.523L170.499 175.499L185.836 184.363Z" fill="#CDCDCD"/>
<path fill-rule="evenodd" clip-rule="evenodd" d="M211.151 169.635L211.114 182.659L185.799 197.386L185.835 184.362L211.151 169.635Z" fill="#EAEAEA"/>
<path fill-rule="evenodd" clip-rule="evenodd" d="M211.151 169.635L185.835 184.362L170.499 175.499L180.578 169.635L160.043 157.768L175.281 148.904L211.151 169.635Z" fill="white"/>
<path fill-rule="evenodd" clip-rule="evenodd" d="M310.164 265.402L310.202 278.427L330.734 266.559L330.698 253.535L310.164 265.402Z" fill="#EAEAEA"/>
<path fill-rule="evenodd" clip-rule="evenodd" d="M304.906 280.13L304.944 293.154L320.28 284.29L320.242 271.266L304.906 280.13Z" fill="#EAEAEA"/>
<path fill-rule="evenodd" clip-rule="evenodd" d="M279.591 265.402L279.628 278.427L304.943 293.154L304.907 280.129L279.591 265.402Z" fill="#CDCDCD"/>
<path fill-rule="evenodd" clip-rule="evenodd" d="M279.591 265.402L304.907 280.13L320.243 271.266L310.165 265.402L330.699 253.535L315.461 244.672L279.591 265.402Z" fill="white"/>
<path fill-rule="evenodd" clip-rule="evenodd" d="M98.3849 223.064L98.3474 236.088L83.0708 244.977L83.1071 231.952L98.3849 223.064Z" fill="#EAEAEA"/>
<path fill-rule="evenodd" clip-rule="evenodd" d="M83.1073 231.952L83.0697 244.976L67.6934 236.089L67.7296 223.064L83.1073 231.952Z" fill="#CDCDCD"/>
<path fill-rule="evenodd" clip-rule="evenodd" d="M98.385 223.064L83.1071 231.952L67.7295 223.064L83.0073 214.176L98.385 223.064Z" fill="white"/>
<path fill-rule="evenodd" clip-rule="evenodd" d="M208.841 330.024L208.803 343.049L193.527 351.937L193.563 338.913L208.841 330.024Z" fill="#EAEAEA"/>
<path fill-rule="evenodd" clip-rule="evenodd" d="M193.563 338.912L193.526 351.936L178.149 343.049L178.186 330.025L193.563 338.912Z" fill="#CDCDCD"/>
<path fill-rule="evenodd" clip-rule="evenodd" d="M208.841 330.024L193.563 338.912L178.187 330.024L193.463 321.137L208.841 330.024Z" fill="white"/>
<path fill-rule="evenodd" clip-rule="evenodd" d="M298.357 198.714L298.321 211.738L283.043 220.626L283.079 207.602L298.357 198.714Z" fill="#EAEAEA"/>
<path fill-rule="evenodd" clip-rule="evenodd" d="M283.079 207.601L283.042 220.626L267.666 211.739L267.702 198.715L283.079 207.601Z" fill="#CDCDCD"/>
<path fill-rule="evenodd" clip-rule="evenodd" d="M298.357 198.714L283.079 207.602L267.703 198.714L282.979 189.827L298.357 198.714Z" fill="white"/>
<path fill-rule="evenodd" clip-rule="evenodd" d="M327.939 111.269L327.901 124.293L312.625 133.181L312.661 120.157L327.939 111.269Z" fill="#EAEAEA"/>
<path fill-rule="evenodd" clip-rule="evenodd" d="M312.661 120.156L312.625 133.181L297.248 124.294L297.284 111.27L312.661 120.156Z" fill="#CDCDCD"/>
<path fill-rule="evenodd" clip-rule="evenodd" d="M327.939 111.269L312.661 120.157L297.283 111.269L312.561 102.382L327.939 111.269Z" fill="white"/>
<path fill-rule="evenodd" clip-rule="evenodd" d="M447.906 196.646L447.87 209.67L432.592 218.558L432.628 205.534L447.906 196.646Z" fill="#EAEAEA"/>
<path fill-rule="evenodd" clip-rule="evenodd" d="M432.628 205.533L432.591 218.558L417.214 209.671L417.251 196.646L432.628 205.533Z" fill="#CDCDCD"/>
<path fill-rule="evenodd" clip-rule="evenodd" d="M447.906 196.646L432.628 205.534L417.252 196.646L432.529 187.759L447.906 196.646Z" fill="white"/>
<path fill-rule="evenodd" clip-rule="evenodd" d="M155.407 183.314L155.371 196.338L140.093 205.227L140.13 192.202L155.407 183.314Z" fill="#EAEAEA"/>
<path fill-rule="evenodd" clip-rule="evenodd" d="M140.13 192.202L140.093 205.226L124.716 196.339L124.752 183.315L140.13 192.202Z" fill="#CDCDCD"/>
<path fill-rule="evenodd" clip-rule="evenodd" d="M155.407 183.314L140.13 192.202L124.752 183.314L140.03 174.427L155.407 183.314Z" fill="white"/>
<path fill-rule="evenodd" clip-rule="evenodd" d="M62.2004 235.858L62.1641 248.882L46.8862 257.77L46.9225 244.746L62.2004 235.858Z" fill="#EAEAEA"/>
<path fill-rule="evenodd" clip-rule="evenodd" d="M46.9232 244.745L46.8869 257.77L31.5093 248.883L31.5456 235.859L46.9232 244.745Z" fill="#CDCDCD"/>
<path fill-rule="evenodd" clip-rule="evenodd" d="M62.2004 235.858L46.9225 244.746L31.5449 235.858L46.8228 226.971L62.2004 235.858Z" fill="white"/>
<path fill-rule="evenodd" clip-rule="evenodd" d="M246.318 222.169L246.28 235.193L217.892 251.707L217.93 238.683L246.318 222.169Z" fill="#EAEAEA"/>
<path fill-rule="evenodd" clip-rule="evenodd" d="M217.93 238.684L217.892 251.708L207.794 245.872L207.83 232.847L217.93 238.684Z" fill="#CDCDCD"/>
<path fill-rule="evenodd" clip-rule="evenodd" d="M246.318 222.169L217.93 238.683L207.831 232.847L236.219 216.333L246.318 222.169Z" fill="white"/>
<path fill-rule="evenodd" clip-rule="evenodd" d="M373.839 230.426L373.803 243.45L345.414 259.965L345.451 246.941L373.839 230.426Z" fill="#EAEAEA"/>
<path fill-rule="evenodd" clip-rule="evenodd" d="M345.451 246.941L345.415 259.965L335.315 254.129L335.352 241.105L345.451 246.941Z" fill="#CDCDCD"/>
<path fill-rule="evenodd" clip-rule="evenodd" d="M373.84 230.426L345.451 246.941L335.352 241.104L363.742 224.59L373.84 230.426Z" fill="white"/>
<path fill-rule="evenodd" clip-rule="evenodd" d="M171.511 244.301L171.549 257.325L199.937 273.839L199.899 260.815L171.511 244.301Z" fill="#CDCDCD"/>
<path fill-rule="evenodd" clip-rule="evenodd" d="M199.899 260.815L199.937 273.84L210.035 268.003L209.999 254.979L199.899 260.815Z" fill="#EAEAEA"/>
<path fill-rule="evenodd" clip-rule="evenodd" d="M171.511 244.301L199.899 260.815L209.999 254.979L181.611 238.464L171.511 244.301Z" fill="white"/>
<path fill-rule="evenodd" clip-rule="evenodd" d="M238.753 298.058L238.791 311.082L267.179 327.596L267.142 314.572L238.753 298.058Z" fill="#CDCDCD"/>
<path fill-rule="evenodd" clip-rule="evenodd" d="M267.142 314.573L267.18 327.597L277.278 321.761L277.241 308.736L267.142 314.573Z" fill="#EAEAEA"/>
<path fill-rule="evenodd" clip-rule="evenodd" d="M238.753 298.058L267.142 314.572L277.241 308.736L248.853 292.221L238.753 298.058Z" fill="#F9F8F7"/>
<path fill-rule="evenodd" clip-rule="evenodd" d="M413.908 129.962V158.979L417.416 156.952V127.934L413.908 129.962Z" fill="#CBCBCB"/>
<path fill-rule="evenodd" clip-rule="evenodd" d="M430.1 122.879C430.1 130.861 423.636 137.333 415.662 137.333C407.688 137.333 401.225 130.861 401.225 122.879C401.225 114.896 407.688 108.426 415.662 108.426C423.636 108.426 430.1 114.896 430.1 122.879Z" fill="#AA1924"/>
<path fill-rule="evenodd" clip-rule="evenodd" d="M423.082 110.48C424.384 112.651 425.134 115.192 425.134 117.908C425.134 125.889 418.669 132.361 410.696 132.361C407.983 132.361 405.445 131.61 403.276 130.307C405.8 134.515 410.402 137.332 415.662 137.332C423.635 137.332 430.1 130.862 430.1 122.879C430.1 117.613 427.286 113.006 423.082 110.48Z" fill="#702127"/>
<path fill-rule="evenodd" clip-rule="evenodd" d="M225.545 199.558V228.575L229.054 226.548V197.531L225.545 199.558Z" fill="#CBCBCB"/>
<path fill-rule="evenodd" clip-rule="evenodd" d="M227.299 206.928C219.326 206.928 212.862 200.456 212.862 192.475C212.862 184.493 219.326 178.021 227.299 178.021C235.274 178.021 241.738 184.493 241.738 192.475C241.738 200.456 235.274 206.928 227.299 206.928Z" fill="#AA1924"/>
<path fill-rule="evenodd" clip-rule="evenodd" d="M234.719 180.076C236.021 182.247 236.771 184.788 236.771 187.503C236.771 195.485 230.306 201.957 222.333 201.957C219.62 201.957 217.082 201.206 214.913 199.902C217.437 204.111 222.039 206.928 227.299 206.928C235.274 206.928 241.737 200.456 241.737 192.475C241.737 187.209 238.923 182.602 234.719 180.076Z" fill="#702127"/>
<path fill-rule="evenodd" clip-rule="evenodd" d="M191.809 302.401V331.419L195.318 329.391V300.374L191.809 302.401Z" fill="#CBCBCB"/>
<path fill-rule="evenodd" clip-rule="evenodd" d="M207.964 295.318C207.964 303.3 201.5 309.772 193.526 309.772C185.553 309.772 179.089 303.3 179.089 295.318C179.089 287.337 185.553 280.865 193.526 280.865C201.5 280.865 207.964 287.337 207.964 295.318Z" fill="#AA1924"/>
<path fill-rule="evenodd" clip-rule="evenodd" d="M200.983 282.919C202.285 285.09 203.036 287.63 203.036 290.347C203.036 298.328 196.57 304.8 188.597 304.8C185.884 304.8 183.346 304.049 181.177 302.746C183.701 306.955 188.303 309.772 193.563 309.772C201.538 309.772 208.002 303.3 208.002 295.318C208.002 290.053 205.188 285.446 200.983 282.919Z" fill="#702127"/>
<path fill-rule="evenodd" clip-rule="evenodd" d="M292.389 11.0549C289.613 9.43883 285.769 9.6632 281.532 12.1119C281.042 12.3946 280.558 12.7111 280.075 13.0444L273.328 9.11977C270.164 7.27937 265.787 7.53228 260.962 10.3208C251.763 15.637 244.238 28.2501 243.665 39.0085C243.086 39.2523 242.507 39.5428 241.912 39.8865C234.662 44.077 228.775 54.2738 228.799 62.6237C228.811 66.7662 230.279 69.6857 232.642 71.0605L241.276 76.0837C238.913 74.7089 237.445 71.7894 237.433 67.6469C237.41 59.297 243.296 49.1002 250.548 44.9097C251.141 44.566 251.72 44.2755 252.299 44.0316C252.872 33.2733 260.397 20.6602 269.596 15.3439C273.381 13.1559 276.882 12.549 279.748 13.2701C279.038 13.7759 278.337 14.3284 277.654 14.9302L286.288 19.9534C287.539 18.8522 288.845 17.899 290.166 17.135C294.404 14.6864 298.247 14.462 301.023 16.078L292.389 11.0549Z" fill="#CDCDCD"/>
<path fill-rule="evenodd" clip-rule="evenodd" d="M286.288 19.9535C287.538 18.8524 288.844 17.8991 290.166 17.1352C298.591 12.2664 305.457 16.1923 305.484 25.8833C305.512 35.5639 298.69 47.4013 290.266 52.2701L250.633 75.1759C243.381 79.3664 237.456 75.9865 237.433 67.647C237.41 59.2971 243.296 49.1003 250.547 44.9085C251.142 44.5661 251.72 44.2756 252.299 44.0318C252.872 33.2734 260.397 20.6604 269.595 15.3441C277.44 10.8099 284.106 12.9771 286.288 19.9535Z" fill="#EFEFEF"/>
<path fill-rule="evenodd" clip-rule="evenodd" d="M217.734 9.64995C215.715 8.47619 212.92 8.64221 209.833 10.4255C209.333 10.7148 208.841 11.0533 208.355 11.4061L216.99 16.4292C217.474 16.0764 217.967 15.7379 218.468 15.4487C221.554 13.6654 224.35 13.4994 226.368 14.6731L217.734 9.64995ZM213.047 6.08847L204.412 1.0666C201.918 -0.384708 198.464 -0.179787 194.65 2.02506C188.572 5.53726 183.437 13.0558 181.656 20.3928C180.011 20.0465 178.03 20.4343 175.894 21.669C170.247 24.9335 165.686 32.8411 165.704 39.3363C165.708 40.7046 165.931 41.8823 166.302 42.8939C164.93 42.641 163.293 42.9743 161.526 43.9963C156.754 46.7537 152.904 53.4409 152.918 58.9284C152.926 61.6572 153.888 63.578 155.441 64.482L164.076 69.5039C162.524 68.6012 161.561 66.6803 161.553 63.9515C161.538 58.464 165.388 51.7769 170.16 49.0195C171.929 47.9975 173.565 47.6642 174.936 47.9171C174.565 46.9054 174.342 45.7278 174.338 44.3595C174.32 37.8643 178.881 29.9553 184.528 26.6921C186.664 25.4574 188.645 25.0696 190.291 25.4159C192.073 18.079 197.206 10.5604 203.284 7.04693C207.098 4.84338 210.552 4.63846 213.047 6.08847Z" fill="#CDCDCD"/>
<path fill-rule="evenodd" clip-rule="evenodd" d="M203.284 7.04757C210.863 2.6664 217.024 6.18119 217.048 14.8994C217.05 15.4039 217.027 15.9124 216.99 16.4286C217.474 16.0771 217.967 15.7386 218.467 15.4493C224.6 11.9047 229.583 14.7477 229.603 21.7928C229.622 28.8458 224.672 37.4304 218.539 40.9737L170.217 68.9027C165.445 71.66 161.569 69.4396 161.553 63.9522C161.538 58.4634 165.388 51.7762 170.16 49.0188C171.929 47.9968 173.565 47.6648 174.936 47.9164C174.565 46.9061 174.342 45.7271 174.338 44.3601C174.32 37.8636 178.881 29.956 184.528 26.6915C186.664 25.4581 188.645 25.0703 190.291 25.4166C192.073 18.0783 197.206 10.5598 203.284 7.04757Z" fill="#EFEFEF"/>
<path fill-rule="evenodd" clip-rule="evenodd" d="M107.812 258.914L107.827 253.47C107.83 252.289 108.601 251.113 110.14 250.217L110.124 255.661C108.585 256.558 107.815 257.734 107.812 258.914Z" fill="#CBCBCB"/>
<path fill-rule="evenodd" clip-rule="evenodd" d="M110.125 255.662L110.14 250.217L115.781 246.935L115.766 252.379L110.125 255.662Z" fill="#CBCBCB"/>
<path fill-rule="evenodd" clip-rule="evenodd" d="M127.106 246.933C123.984 245.127 118.888 245.127 115.781 246.935L115.766 252.38C118.873 250.573 123.968 250.573 127.091 252.377L169.534 276.907L169.549 271.462L127.106 246.933Z" fill="#CBCBCB"/>
<path fill-rule="evenodd" clip-rule="evenodd" d="M171.007 287.576L166.747 285.114L169.567 283.474C170.202 283.105 170.698 282.686 171.072 282.24L166.763 279.67L170.194 277.347C169.989 277.195 169.774 277.047 169.533 276.907L127.091 252.377C123.968 250.573 118.872 250.573 115.766 252.38L110.124 255.663C107.348 257.277 107.074 259.808 109.287 261.618L94.1478 270.425C91.0461 272.23 91.063 275.185 94.1854 276.989L141.851 304.538C144.977 306.344 150.073 306.344 153.176 304.54L171.044 294.145C174.151 292.338 174.134 289.383 171.007 287.576Z" fill="#CCF1FF"/>
<path fill-rule="evenodd" clip-rule="evenodd" d="M171.023 282.131L166.763 279.669L166.748 285.114L171.008 287.576C172.582 288.485 173.367 289.686 173.364 290.883L173.38 285.438C173.382 284.24 172.597 283.04 171.023 282.131Z" fill="#CBCBCB"/>
<path fill-rule="evenodd" clip-rule="evenodd" d="M94.1638 264.98C92.6233 265.876 91.8511 267.057 91.8473 268.24L91.833 273.684C91.8356 272.501 92.6065 271.321 94.1483 270.425L109.287 261.619L109.303 256.174L94.1638 264.98Z" fill="#CBCBCB"/>
<path fill-rule="evenodd" clip-rule="evenodd" d="M171.897 276.157L171.901 274.767C171.905 273.57 171.12 272.37 169.548 271.462L169.534 276.907C169.771 277.045 169.985 277.191 170.187 277.34L171.897 276.157Z" fill="#CBCBCB"/>
<path fill-rule="evenodd" clip-rule="evenodd" d="M8.43523 240.699C0.754843 245.139 0.713384 252.336 8.34454 256.775L218.791 379.201C226.422 383.641 238.834 383.641 246.516 379.201L557.019 199.743C564.7 195.305 564.741 188.108 557.11 183.669L346.663 61.2413C339.031 56.803 326.619 56.803 318.939 61.2413L8.43523 240.699Z" stroke="white" stroke-width="4"/>
<path fill-rule="evenodd" clip-rule="evenodd" d="M310.839 84.0055V113.023L314.347 110.995V81.9771L310.839 84.0055Z" fill="#CBCBCB"/>
<path fill-rule="evenodd" clip-rule="evenodd" d="M327.031 76.9222C327.031 84.905 320.567 91.3756 312.593 91.3756C304.62 91.3756 298.156 84.905 298.156 76.9222C298.156 68.9406 304.62 62.4688 312.593 62.4688C320.567 62.4688 327.031 68.9406 327.031 76.9222Z" fill="#AA1924"/>
<path fill-rule="evenodd" clip-rule="evenodd" d="M320.013 64.5232C321.315 66.6943 322.065 69.2351 322.065 71.9509C322.065 79.9325 315.601 86.4044 307.627 86.4044C304.914 86.4044 302.376 85.6534 300.207 84.35C302.731 88.5587 307.333 91.3757 312.593 91.3757C320.568 91.3757 327.031 84.9038 327.031 76.9222C327.031 71.6565 324.217 67.0497 320.013 64.5232Z" fill="#702127"/>
</svg>
