<svg width="51" height="48" viewBox="0 0 51 48" fill="none" xmlns="http://www.w3.org/2000/svg">
<path fill-rule="evenodd" clip-rule="evenodd" d="M39.5485 21.4377V43.9867H10.5065V21.4377C10.5065 20.3337 9.61051 19.4377 8.50651 19.4377H7.46951L25.0275 4.61775L42.5855 19.4377H41.5485C40.4435 19.4377 39.5485 20.3337 39.5485 21.4377ZM8.50651 47.9868H41.5485C42.6525 47.9868 43.5485 47.0908 43.5485 45.9868V23.4377H48.0555C48.8945 23.4377 49.6455 22.9137 49.9335 22.1248C50.2215 21.3368 49.9865 20.4517 49.3455 19.9097L26.3175 0.47175C25.5725 -0.15725 24.4825 -0.15725 23.7375 0.47175L0.709507 19.9097C0.068507 20.4517 -0.166493 21.3368 0.121507 22.1248C0.409507 22.9137 1.16051 23.4377 1.99951 23.4377H6.50651V45.9868C6.50651 47.0908 7.40251 47.9868 8.50651 47.9868ZM29.5268 35.1687H20.5288V26.1717H29.5268V35.1687ZM18.5288 39.1687H31.5258C32.6308 39.1687 33.5258 38.2727 33.5258 37.1687V24.1717C33.5258 23.0667 32.6308 22.1717 31.5258 22.1717H18.5288C17.4238 22.1717 16.5288 23.0667 16.5288 24.1717V37.1687C16.5288 38.2727 17.4238 39.1687 18.5288 39.1687Z" fill="#737373"/>
</svg>
