<?xml version="1.0" encoding="UTF-8"?>
<svg width="55.1543289px" height="55.1543289px" viewBox="0 0 55.1543289 55.1543289" version="1.1" xmlns="http://www.w3.org/2000/svg" xmlns:xlink="http://www.w3.org/1999/xlink">
    <title>Close</title>
    <g id="Close" stroke="none" stroke-width="1" fill="none" fill-rule="evenodd">
        <path d="M27.5771645,8.07716447 C29.5101611,8.07716447 31.0771645,9.64416784 31.0771645,11.5771645 L31.0771645,24.0771645 L43.5771645,24.0771645 C45.5101611,24.0771645 47.0771645,25.6441678 47.0771645,27.5771645 C47.0771645,29.5101611 45.5101611,31.0771645 43.5771645,31.0771645 L31.0771645,31.0771645 L31.0771645,43.5771645 C31.0771645,45.5101611 29.5101611,47.0771645 27.5771645,47.0771645 C25.6441678,47.0771645 24.0771645,45.5101611 24.0771645,43.5771645 L24.0771645,31.0761645 L11.5771645,31.0771645 C9.64416784,31.0771645 8.07716447,29.5101611 8.07716447,27.5771645 C8.07716447,25.6441678 9.64416784,24.0771645 11.5771645,24.0771645 L24.0771645,24.0761645 L24.0771645,11.5771645 C24.0771645,9.64416784 25.6441678,8.07716447 27.5771645,8.07716447 Z" id="Combined-Shape-Copy" fill="#AA1924" transform="translate(27.577164, 27.577164) rotate(-315.000000) translate(-27.577164, -27.577164) "></path>
    </g>
</svg>