<?xml version="1.0" encoding="UTF-8"?>
<svg width="44px" height="51px" viewBox="0 0 44 51" version="1.1" xmlns="http://www.w3.org/2000/svg" xmlns:xlink="http://www.w3.org/1999/xlink">
    <title>Контакты</title>
    <g id="Symbols" stroke="none" stroke-width="1" fill="none" fill-rule="evenodd">
        <g id="Menu-Active" transform="translate(-503.000000, -20.000000)" fill="#AA1924">
            <g id="Контакты" transform="translate(503.000000, 20.000000)">
                <path d="M21.59,4 C11.891,4 4,11.892 4,21.591 C4,34.432 17.744,44.083 21.589,46.53 C25.431,44.077 39.18,34.402 39.18,21.591 C39.18,11.892 31.289,4 21.59,4 M21.59,50.875 C21.25,50.875 20.91,50.788 20.605,50.615 C19.763,50.139 0,38.751 0,21.591 C0,9.686 9.685,0 21.59,0 C33.495,0 43.18,9.686 43.18,21.591 C43.18,38.751 23.417,50.139 22.575,50.615 C22.27,50.788 21.93,50.875 21.59,50.875" id="Fill-11"></path>
                <path d="M21.59,14.6113 C18.196,14.6113 15.436,17.3723 15.436,20.7653 C15.436,24.1593 18.196,26.9203 21.59,26.9203 C24.984,26.9203 27.744,24.1593 27.744,20.7653 C27.744,17.3723 24.984,14.6113 21.59,14.6113 M21.59,30.9203 C15.991,30.9203 11.436,26.3643 11.436,20.7653 C11.436,15.1673 15.991,10.6113 21.59,10.6113 C27.189,10.6113 31.744,15.1673 31.744,20.7653 C31.744,26.3643 27.189,30.9203 21.59,30.9203" id="Fill-13"></path>
            </g>
        </g>
    </g>
</svg>