<?xml version="1.0" encoding="UTF-8"?>
<svg width="43px" height="53px" viewBox="0 0 43 53" version="1.1" xmlns="http://www.w3.org/2000/svg" xmlns:xlink="http://www.w3.org/1999/xlink">
    <title>Fill 4</title>
    <g id="Symbols" stroke="none" stroke-width="1" fill="none" fill-rule="evenodd">
        <g id="Fill" fill="#AA1924">
            <path d="M34.8882168,13.6788926 L29.304398,8.09072614 L32.196308,5.19712464 L37.781208,10.7852911 L34.8882168,13.6788926 Z M9.90860038,38.6731193 L4.3247815,38.6731193 L4.3247815,33.0849528 L26.2470815,11.1509125 L31.8309003,16.7379973 L9.90860038,38.6731193 Z M42.3671828,9.25573878 L33.7260474,0.608467605 C32.9152315,-0.202822535 31.4784657,-0.202822535 30.6676498,0.608467605 L0.633947495,30.6597361 C0.228539542,31.0653812 0.00043,31.6159768 0.00043,32.1892885 L0.00043,40.8365596 C0.00043,42.0307787 0.969084737,43 2.16260575,43 L10.8048222,43 C11.3777988,43 11.9280725,42.771757 12.3334805,42.366112 L42.3671828,12.3148435 C43.2115124,11.47002 43.2115124,10.1005622 42.3671828,9.25573878 L42.3671828,9.25573878 Z M40.128675,49 L2.15,49 C0.9632,49 0,49.896 0,51 C0,52.104 0.9632,53 2.15,53 L40.128675,53 C41.315475,53 42.278675,52.104 42.278675,51 C42.278675,49.896 41.315475,49 40.128675,49" id="Fill-4"></path>
        </g>
    </g>
</svg>