<?xml version="1.0" encoding="UTF-8"?>
<svg width="69px" height="69px" viewBox="0 0 69 69" version="1.1" xmlns="http://www.w3.org/2000/svg" xmlns:xlink="http://www.w3.org/1999/xlink">
    <title>Insta</title>
    <g id="Insta" stroke="none" stroke-width="1" fill="none" fill-rule="evenodd">
        <path d="M34.5,0 C25.1298,0 23.95542,0.04002 20.27634,0.207 C16.60416,0.37536 14.09532,0.95772 11.90112,1.81056 C9.6324,2.69238 7.70868,3.87228 5.79048,5.79048 C3.87228,7.70868 2.69238,9.6324 1.81056,11.90112 C0.95772,14.09532 0.37536,16.60416 0.207,20.27634 C0.04002,23.95542 0,25.1298 0,34.5 C0,43.8702 0.04002,45.04458 0.207,48.72366 C0.37536,52.39584 0.95772,54.90468 1.81056,57.09888 C2.69238,59.3676 3.87228,61.29132 5.79048,63.20952 C7.70868,65.12772 9.6324,66.30762 11.90112,67.18944 C14.09532,68.04228 16.60416,68.62464 20.27634,68.793 C23.95542,68.95998 25.1298,69 34.5,69 C43.8702,69 45.04458,68.95998 48.72366,68.793 C52.39584,68.62464 54.90468,68.04228 57.09888,67.18944 C59.3676,66.30762 61.29132,65.12772 63.20952,63.20952 C65.12772,61.29132 66.30762,59.3676 67.18944,57.09888 C68.04228,54.90468 68.62464,52.39584 68.793,48.72366 C68.95998,45.04458 69,43.8702 69,34.5 C69,25.1298 68.95998,23.95542 68.793,20.27634 C68.62464,16.60416 68.04228,14.09532 67.18944,11.90112 C66.30762,9.6324 65.12772,7.70868 63.20952,5.79048 C61.29132,3.87228 59.3676,2.69238 57.09888,1.81056 C54.90468,0.95772 52.39584,0.37536 48.72366,0.207 C45.04458,0.04002 43.8702,0 34.5,0 M35,7 C44.1192974,7 45.1999512,7.03415467 48.8012198,7.1980971 C52.1319834,7.34974384 53.9394486,7.90714808 55.1430593,8.374384 C56.7373994,8.99463284 57.875433,9.73373994 59.0708465,10.9291535 C60.2662601,12.124567 61.0053672,13.2626006 61.625616,14.8569407 C62.0928519,16.0605514 62.6502562,17.8680166 62.8019029,21.1987802 C62.9658453,24.8000488 63,25.8807026 63,35 C63,44.1192974 62.9658453,45.1999512 62.8019029,48.8012198 C62.6502562,52.1319834 62.0928519,53.9394486 61.625616,55.1430593 C61.0053672,56.7373994 60.2662601,57.875433 59.0708465,59.0708465 C57.875433,60.2662601 56.7373994,61.0053672 55.1430593,61.625616 C53.9394486,62.0928519 52.1319834,62.6502562 48.8012198,62.8019029 C45.1999512,62.9658453 44.1206636,63 35,63 C25.8793364,63 24.8000488,62.9658453 21.1987802,62.8019029 C17.8680166,62.6502562 16.0605514,62.0928519 14.8569407,61.625616 C13.2626006,61.0053672 12.124567,60.2662601 10.9291535,59.0708465 C9.73373994,57.875433 8.99463284,56.7373994 8.374384,55.1430593 C7.90714808,53.9394486 7.34974384,52.1319834 7.1980971,48.8012198 C7.03415467,45.1999512 7,44.1192974 7,35 C7,25.8807026 7.03415467,24.8000488 7.1980971,21.1987802 C7.34974384,17.8680166 7.90714808,16.0605514 8.374384,14.8569407 C8.99463284,13.2626006 9.73373994,12.124567 10.9291535,10.9291535 C12.124567,9.73373994 13.2626006,8.99463284 14.8569407,8.374384 C16.0605514,7.90714808 17.8680166,7.34974384 21.1987802,7.1980971 C24.8000488,7.03415467 25.8807026,7 35,7" id="Fill-8" fill="#AA1924"></path>
        <path d="M35,46 C28.925117,46 24,41.0751785 24,35.00066 C24,28.9248215 28.925117,24 35,24 C41.074883,24 46,28.9248215 46,35.00066 C46,41.0751785 41.074883,46 35,46 M34.5,17 C24.8353326,17 17,24.8353326 17,34.5 C17,44.1646674 24.8353326,52 34.5,52 C44.1646674,52 52,44.1646674 52,34.5 C52,24.8353326 44.1646674,17 34.5,17" id="Fill-10" fill="#AA1924"></path>
        <path d="M57,16.5 C57,18.9855 55.2093333,21 53,21 C50.7906667,21 49,18.9855 49,16.5 C49,14.0145 50.7906667,12 53,12 C55.2093333,12 57,14.0145 57,16.5" id="Fill-12" fill="#AA1924"></path>
    </g>
</svg>