<?xml version="1.0" encoding="UTF-8"?>
<svg width="55px" height="38px" viewBox="0 0 55 38" version="1.1" xmlns="http://www.w3.org/2000/svg" xmlns:xlink="http://www.w3.org/1999/xlink">
    <title>Mail</title>
    <g id="Mail" stroke="none" stroke-width="1" fill="none" fill-rule="evenodd">
        <path d="M49.2439897,34.0251046 L5.75601033,34.0251046 C4.77349493,34.0251046 3.9737731,33.2251569 3.9737731,32.242364 L3.9737731,6.71459205 L26.2656467,24.4406381 C26.6272601,24.7298117 27.0643751,24.8729079 27.5024836,24.8729079 C27.9395986,24.8729079 28.3767137,24.7298117 28.738327,24.4406381 L51.0262269,6.71757322 L51.0262269,32.242364 C51.0262269,33.2251569 50.2274985,34.0251046 49.2439897,34.0251046 L49.2439897,34.0251046 Z M48.0896086,3.9748954 L27.5024836,20.3464958 L6.91436519,3.9748954 L48.0896086,3.9748954 Z M49.2439897,0 L5.75601033,0 C2.58295251,0 0,2.58268828 0,5.75862971 L0,32.242364 C0,35.416318 2.58295251,38 5.75601033,38 L49.2439897,38 C52.4180409,38 55,35.416318 55,32.242364 L55,5.75862971 C55,2.58268828 52.4180409,0 49.2439897,0 L49.2439897,0 Z" id="Fill-1" fill="#AA1924"></path>
    </g>
</svg>