<?xml version="1.0" encoding="UTF-8"?>
<svg width="49px" height="50px" viewBox="0 0 49 50" version="1.1" xmlns="http://www.w3.org/2000/svg" xmlns:xlink="http://www.w3.org/1999/xlink">
    <title>Меню</title>
    <g id="Symbols" stroke="none" stroke-width="1" fill="none" fill-rule="evenodd">
        <g id="Menu-Active" transform="translate(-51.000000, -18.000000)" fill="#AA1924">
            <path d="M75.2054815,61.421 L60.3994815,35.318 C65.0714815,32.951 70.0424815,31.746 75.2054815,31.746 C80.3684815,31.746 85.3384815,32.951 90.0114815,35.318 L75.2054815,61.421 Z M75.2054815,22 C82.0614815,22 88.7614815,23.741 94.7014815,27.052 L91.9854815,31.84 C86.7014815,29.13 81.0674815,27.746 75.2054815,27.746 C69.3424815,27.746 63.7104815,29.13 58.4264815,31.839 L55.7104815,27.052 C61.6504815,23.741 68.3504815,22 75.2054815,22 L75.2054815,22 Z M98.4674815,24.63 C91.4974815,20.293 83.4534815,18 75.2054815,18 C66.9584815,18 58.9144815,20.293 51.9434815,24.63 C51.0324815,25.197 50.7314815,26.382 51.2604815,27.315 L73.4654815,66.461 C73.8214815,67.088 74.4854815,67.475 75.2054815,67.475 C75.9254815,67.475 76.5894815,67.088 76.9454815,66.461 L99.1504815,27.315 C99.6804815,26.382 99.3784815,25.197 98.4674815,24.63 L98.4674815,24.63 Z" id="Меню"></path>
        </g>
    </g>
</svg>