<?xml version="1.0" encoding="UTF-8"?>
<svg width="154px" height="154px" viewBox="0 0 154 154" version="1.1" xmlns="http://www.w3.org/2000/svg" xmlns:xlink="http://www.w3.org/1999/xlink">
    <title>No photo</title>
    <defs>
        <path d="M1.87939815,1.87939815 C4.38526236,-0.626466051 8.44807097,-0.626466051 10.9539352,1.87939815 L10.9539352,1.87939815 L43.0066783,33.9323449 C43.0271394,33.9525345 43.0474655,33.9728606 43.0676551,33.9933217 L66.8431272,57.7677433 C66.8781642,57.8018695 66.9128694,57.8364572 66.9472336,57.8715048 L102.533241,93.4577753 C102.572467,93.4960364 102.611121,93.5347234 102.6492,93.5738236 L139.256678,130.182345 C139.277139,130.202535 139.297465,130.222861 139.317655,130.243322 L152.120602,143.046065 C154.626466,145.551929 154.626466,149.614738 152.120602,152.120602 C149.614738,154.626466 145.551929,154.626466 143.046065,152.120602 L143.046065,152.120602 L132.092,141.166 L19.25,141.166667 C8.73283557,141.166667 0.185577225,132.732496 0.00298121496,122.258911 L0,121.916667 L0,51.3333333 C0,40.7018519 8.61851857,32.0833333 19.25,32.0833333 L19.25,32.0833333 L23.009,32.083 L1.87939815,10.9539352 C-0.565347412,8.50918961 -0.624975353,4.58252194 1.70051433,2.06548749 Z M35.842,44.916 L19.25,44.9166667 C15.7061729,44.9166667 12.8333333,47.7895062 12.8333333,51.3333333 L12.8333333,51.3333333 L12.8333333,121.916667 C12.8333333,125.460494 15.7061729,128.333333 19.25,128.333333 L19.25,128.333333 L119.259,128.333 L98.3270866,107.401576 C90.9926302,114.002557 80.8879566,116.957188 70.9302373,115.082204 L70.4894155,114.99602 C57.8558153,112.434694 47.9819731,102.560851 45.4206469,89.9272512 C43.3730295,79.8274909 46.3167445,69.5320639 53.0153145,62.0893318 L35.842,44.916 Z M96.25,12.8333333 C98.395433,12.8333333 100.398917,13.9055656 101.588989,15.6906737 L101.588989,15.6906737 L112.517429,32.0833333 L134.75,32.0833333 C145.381481,32.0833333 154,40.7018519 154,51.3333333 L154,51.3333333 L154,111.265 C154,114.808827 151.12716,117.681667 147.583333,117.681667 C144.039506,117.681667 141.166667,114.808827 141.166667,111.265 L141.166667,111.265 L141.166667,51.3333333 C141.166667,47.7895062 138.293827,44.9166667 134.75,44.9166667 L134.75,44.9166667 L109.083333,44.9166667 C106.9379,44.9166667 104.934416,43.8444344 103.744344,42.0593263 L103.744344,42.0593263 L92.8159042,25.6666667 L57.75,25.6666667 C54.2061729,25.6666667 51.3333333,22.7938271 51.3333333,19.25 C51.3333333,15.7061729 54.2061729,12.8333333 57.75,12.8333333 L57.75,12.8333333 Z M62.1115365,71.1849618 C58.4072843,75.6041284 56.8156774,81.5450914 57.9980966,87.377309 C59.5348922,94.9574691 65.4591976,100.881774 73.0393577,102.41857 C78.8711336,103.6009 84.8116383,102.009623 89.2307007,98.3059718 Z" id="path-1"></path>
    </defs>
    <g id="No-photo" stroke="none" stroke-width="1" fill="none" fill-rule="evenodd">
        <mask id="mask-2" fill="white">
            <use xlink:href="#path-1"></use>
        </mask>
        <use id="Combined-Shape" fill="#CDCDCD" fill-rule="nonzero" xlink:href="#path-1"></use>
    </g>
</svg>