<?xml version="1.0" encoding="UTF-8"?>
<svg width="47.494px" height="47.496px" viewBox="0 0 47.494 47.496" version="1.1" xmlns="http://www.w3.org/2000/svg" xmlns:xlink="http://www.w3.org/1999/xlink">
    <title>Pic</title>
    <g id="Pic" stroke="none" stroke-width="1" fill="none" fill-rule="evenodd">
        <path d="M33.9897,10.0843 C35.7447,10.0843 37.1727,11.5123 37.1727,13.2683 C37.1727,15.0223 35.7447,16.4503 33.9897,16.4503 C32.2347,16.4503 30.8067,15.0223 30.8067,13.2683 C30.8067,11.5123 32.2347,10.0843 33.9897,10.0843 M33.9897,20.4503 C37.9507,20.4503 41.1727,17.2293 41.1727,13.2683 C41.1727,9.3073 37.9507,6.0843 33.9897,6.0843 C30.0287,6.0843 26.8067,9.3073 26.8067,13.2683 C26.8067,17.2293 30.0287,20.4503 33.9897,20.4503 M4,38.158 L14.735,19.566 L28.55,43.494 L4,43.494 L4,38.158 Z M33.168,43.494 L29.692,37.473 L32.912,31.896 L39.609,43.494 L33.168,43.494 Z M43.494,4 L43.494,42.224 L34.644,26.896 C34.287,26.277 33.627,25.896 32.912,25.896 C32.198,25.896 31.538,26.277 31.18,26.896 L27.383,33.473 L16.467,14.566 C16.109,13.947 15.449,13.566 14.735,13.566 C14.02,13.566 13.36,13.947 13.003,14.566 L4,30.158 L4,4 L43.494,4 Z M45.494,0 L2,0 C0.896,0 0,0.896 0,2 L0,45.494 C0,46.599 0.896,47.494 2,47.494 L32.002,47.494 C32.007,47.494 32.012,47.496 32.017,47.496 C32.022,47.496 32.027,47.494 32.032,47.494 L43.061,47.494 C43.066,47.494 43.071,47.496 43.076,47.496 C43.081,47.496 43.086,47.494 43.091,47.494 L45.494,47.494 C46.599,47.494 47.494,46.599 47.494,45.494 L47.494,2 C47.494,0.896 46.599,0 45.494,0 L45.494,0 Z" id="Fill-1" fill="#000000"></path>
    </g>
</svg>