<?xml version="1.0" encoding="UTF-8"?>
<svg width="46px" height="48px" viewBox="0 0 46 48" version="1.1" xmlns="http://www.w3.org/2000/svg" xmlns:xlink="http://www.w3.org/1999/xlink">
    <title>Профиль</title>
    <g id="Symbols" stroke="none" stroke-width="1" fill="none" fill-rule="evenodd">
        <g id="Menu-Active" transform="translate(-203.000000, -21.000000)" fill="#AA1924">
            <path d="M207.106,64.1368 C208.107,54.7698 216.058,47.4498 225.687,47.4498 C235.316,47.4498 243.268,54.7698 244.269,64.1368 L207.106,64.1368 Z M225.925,25.0218 C231.006,25.0218 235.139,29.1558 235.139,34.2358 C235.139,39.3158 231.006,43.4498 225.925,43.4498 C220.845,43.4498 216.711,39.3158 216.711,34.2358 C216.711,29.1558 220.845,25.0218 225.925,25.0218 L225.925,25.0218 Z M233.684,44.9088 C236.983,42.5038 239.139,38.6208 239.139,34.2358 C239.139,26.9488 233.211,21.0218 225.925,21.0218 C218.639,21.0218 212.711,26.9488 212.711,34.2358 C212.711,38.5498 214.8,42.3768 218.008,44.7898 C209.266,47.9438 203,56.3218 203,66.1368 C203,67.2408 203.895,68.1368 205,68.1368 L246.375,68.1368 C247.48,68.1368 248.375,67.2408 248.375,66.1368 C248.375,56.4408 242.259,48.1498 233.684,44.9088 L233.684,44.9088 Z" id="Профиль"></path>
        </g>
    </g>
</svg>