<?xml version="1.0" encoding="UTF-8"?>
<svg width="44px" height="42px" viewBox="0 0 44 42" version="1.1" xmlns="http://www.w3.org/2000/svg" xmlns:xlink="http://www.w3.org/1999/xlink">
    <title>Акции</title>
    <g id="Symbols" stroke="none" stroke-width="1" fill="none" fill-rule="evenodd">
        <g id="Menu-Active" transform="translate(-353.000000, -24.000000)" fill="#AA1924">
            <g id="Акции" transform="translate(353.000000, 24.000000)">
                <path d="M9.808,4 C6.605,4 4,6.605 4,9.808 C4,13.011 6.605,15.616 9.808,15.616 C13.011,15.616 15.616,13.011 15.616,9.808 C15.616,6.605 13.011,4 9.808,4 M9.808,19.616 C4.4,19.616 4.97379915e-14,15.216 4.97379915e-14,9.808 C4.97379915e-14,4.399 4.4,-1.20792265e-13 9.808,-1.20792265e-13 C15.216,-1.20792265e-13 19.616,4.399 19.616,9.808 C19.616,15.216 15.216,19.616 9.808,19.616" id="Fill-5"></path>
                <path d="M33.5429,26.293 C30.3399,26.293 27.7349,28.898 27.7349,32.101 C27.7349,35.304 30.3399,37.909 33.5429,37.909 C36.7459,37.909 39.3509,35.304 39.3509,32.101 C39.3509,28.898 36.7459,26.293 33.5429,26.293 M33.5429,41.909 C28.1349,41.909 23.7349,37.509 23.7349,32.101 C23.7349,26.692 28.1349,22.293 33.5429,22.293 C38.9509,22.293 43.3509,26.692 43.3509,32.101 C43.3509,37.509 38.9509,41.909 33.5429,41.909" id="Fill-7"></path>
                <path d="M2.7206,41.9092 C2.2086,41.9092 1.6966,41.7142 1.3066,41.3232 C0.5256,40.5422 0.5256,39.2762 1.3066,38.4952 L39.2166,0.5862 C39.9966,-0.1948 41.2626,-0.1948 42.0446,0.5862 C42.8256,1.3672 42.8256,2.6332 42.0446,3.4142 L4.1346,41.3232 C3.7446,41.7142 3.2326,41.9092 2.7206,41.9092" id="Fill-9"></path>
            </g>
        </g>
    </g>
</svg>