<?xml version="1.0" encoding="UTF-8"?>
<svg width="62px" height="54px" viewBox="0 0 62 54" version="1.1" xmlns="http://www.w3.org/2000/svg" xmlns:xlink="http://www.w3.org/1999/xlink">
    <title>Fill 1</title>
    <g id="Symbols" stroke="none" stroke-width="1" fill="none" fill-rule="evenodd">
        <g id="Сlear-Oval" transform="translate(-23.000000, -23.000000)" fill="#FFFFFF">
            <path d="M80.7233,48.2608 L76.7353,52.2498 L76.7353,49.8678 C76.7353,35.0528 64.6823,22.9998 49.8673,22.9998 C35.0523,22.9998 23.0003,35.0528 23.0003,49.8678 C23.0003,64.6828 35.0523,76.7358 49.8673,76.7358 C51.2483,76.7358 52.3673,75.6158 52.3673,74.2358 C52.3673,72.8548 51.2483,71.7358 49.8673,71.7358 C37.8093,71.7358 28.0003,61.9258 28.0003,49.8678 C28.0003,37.8098 37.8093,27.9998 49.8673,27.9998 C61.9253,27.9998 71.7353,37.8098 71.7353,49.8678 L71.7353,52.3248 L67.6713,48.2608 C66.6963,47.2838 65.1123,47.2838 64.1363,48.2608 C63.1593,49.2368 63.1593,50.8198 64.1353,51.7958 L74.1973,61.8578 L84.2583,51.7958 C85.2353,50.8198 85.2353,49.2368 84.2583,48.2608 C83.2823,47.2838 81.6983,47.2838 80.7233,48.2608 Z" id="Fill-1"></path>
        </g>
    </g>
</svg>