<svg width="51" height="47" viewBox="0 0 51 47" fill="none" xmlns="http://www.w3.org/2000/svg">
<path fill-rule="evenodd" clip-rule="evenodd" d="M43.2131 26.169C41.3001 26.169 39.7441 24.612 39.7441 22.699C39.7441 20.798 41.2821 19.252 43.1791 19.234C43.1851 19.234 43.1906 19.2347 43.1961 19.2355C43.2016 19.2362 43.2071 19.237 43.2131 19.237C43.2191 19.237 43.2246 19.2362 43.2301 19.2355C43.2356 19.2347 43.2411 19.234 43.2471 19.234C45.1441 19.252 46.6821 20.798 46.6821 22.699C46.6821 24.612 45.1261 26.169 43.2131 26.169ZM50.6821 22.699C50.6821 19.274 48.3621 16.388 45.2131 15.511V2C45.2131 0.896 44.3171 0 43.2131 0C42.1091 0 41.2131 0.896 41.2131 2V15.511C38.0641 16.388 35.7441 19.274 35.7441 22.699C35.7441 26.125 38.0641 29.011 41.2131 29.889V44.164C41.2131 45.269 42.1091 46.164 43.2131 46.164C44.3171 46.164 45.2131 45.269 45.2131 44.164V29.889C48.3621 29.011 50.6821 26.125 50.6821 22.699ZM7.469 18.0733C5.556 18.0733 4 16.5163 4 14.6033C4 12.6983 5.543 11.1503 7.445 11.1373C7.449 11.1373 7.453 11.1378 7.457 11.1383C7.45823 11.1385 7.45945 11.1386 7.46068 11.1387C7.46345 11.1391 7.46623 11.1393 7.469 11.1393C7.47299 11.1393 7.47698 11.1388 7.48098 11.1383L7.481 11.1383C7.485 11.1378 7.489 11.1373 7.493 11.1373C9.395 11.1503 10.938 12.6983 10.938 14.6033C10.938 16.5163 9.382 18.0733 7.469 18.0733ZM9.469 7.4153V2.0003C9.469 0.8953 8.573 0.0003 7.469 0.0003C6.364 0.0003 5.469 0.8953 5.469 2.0003V7.4153C2.32 8.2923 0 11.1783 0 14.6033C0 18.0293 2.32 20.9153 5.469 21.7933V44.1643C5.469 45.2683 6.364 46.1643 7.469 46.1643C8.573 46.1643 9.469 45.2683 9.469 44.1643V21.7933C12.618 20.9153 14.938 18.0293 14.938 14.6033C14.938 11.1783 12.618 8.2923 9.469 7.4153ZM21.8413 32.5936C21.8413 34.5066 23.3973 36.0636 25.3103 36.0636C27.2233 36.0636 28.7793 34.5066 28.7793 32.5936C28.7793 30.6856 27.2313 29.1346 25.3253 29.1266C25.3228 29.1266 25.3203 29.1269 25.3178 29.1271C25.3153 29.1273 25.3128 29.1276 25.3103 29.1276C25.3078 29.1276 25.3053 29.1273 25.3028 29.1271C25.3003 29.1269 25.2978 29.1266 25.2953 29.1266C23.3893 29.1346 21.8413 30.6856 21.8413 32.5936ZM27.3103 2.0006V25.4056C30.4593 26.2826 32.7793 29.1686 32.7793 32.5936C32.7793 36.0196 30.4593 38.9056 27.3103 39.7836V44.1646C27.3103 45.2686 26.4143 46.1646 25.3103 46.1646C24.2063 46.1646 23.3103 45.2686 23.3103 44.1646V39.7836C20.1613 38.9056 17.8413 36.0196 17.8413 32.5936C17.8413 29.1686 20.1613 26.2826 23.3103 25.4056V2.0006C23.3103 0.8956 24.2063 0.0006 25.3103 0.0006C26.4143 0.0006 27.3103 0.8956 27.3103 2.0006Z" fill="#737373"/>
</svg>
