<?xml version="1.0" encoding="UTF-8"?>
<svg width="45px" height="52px" viewBox="0 0 45 52" version="1.1" xmlns="http://www.w3.org/2000/svg" xmlns:xlink="http://www.w3.org/1999/xlink">
    <title>Корзина</title>
    <g id="Symbols" stroke="none" stroke-width="1" fill="none" fill-rule="evenodd">
        <g id="Menu-Active" transform="translate(-653.000000, -17.000000)" fill="#AA1924">
            <path d="M691.110188,62.537 C689.770188,63.91 687.975188,64.666 686.056188,64.666 L664.064188,64.666 C662.146188,64.666 660.351188,63.91 659.011188,62.538 C657.670188,61.165 656.957188,59.352 657.002188,57.434 L657.618188,31.37 L662.958188,31.37 L662.958188,35.634 C662.958188,36.738 663.854188,37.634 664.958188,37.634 C666.063188,37.634 666.958188,36.738 666.958188,35.634 L666.958188,31.37 L683.163188,31.37 L683.163188,35.634 C683.163188,36.738 684.058188,37.634 685.163188,37.634 C686.267188,37.634 687.163188,36.738 687.163188,35.634 L687.163188,31.37 L692.503188,31.37 L693.119188,57.434 C693.164188,59.352 692.451188,61.165 691.110188,62.537 L691.110188,62.537 Z M675.060188,21 C678.933188,21 682.175188,23.733 682.972188,27.37 L667.149188,27.37 C667.945188,23.733 671.188188,21 675.060188,21 L675.060188,21 Z M696.455188,29.323 C696.429188,28.237 695.542188,27.37 694.456188,27.37 L687.024188,27.37 C686.179188,21.516 681.144188,17 675.060188,17 C668.977188,17 663.942188,21.516 663.097188,27.37 L655.665188,27.37 C654.579188,27.37 653.691188,28.237 653.665188,29.323 L653.003188,57.341 C652.932188,60.345 654.049188,63.183 656.149188,65.333 C658.249188,67.482 661.060188,68.666 664.064188,68.666 L686.056188,68.666 C689.061188,68.666 691.872188,67.482 693.972188,65.332 C696.071188,63.183 697.189188,60.345 697.118188,57.341 L696.455188,29.323 Z" id="Корзина"></path>
        </g>
    </g>
</svg>