<?xml version="1.0" encoding="UTF-8"?>
<svg width="47.916673px" height="45.828799px" viewBox="0 0 47.916673 45.828799" version="1.1" xmlns="http://www.w3.org/2000/svg" xmlns:xlink="http://www.w3.org/1999/xlink">
    <title>Status</title>
    <defs>
        <path d="M47.7759038,28.4123535 C47.8705245,28.6562697 47.9172981,28.9140244 47.916673,29.1714104 L47.916673,41.6666667 C47.916673,42.8172599 46.9839266,43.75 45.8333333,43.75 C44.6827401,43.75 43.75,42.8172599 43.75,41.6666667 L43.75,33.9825374 L37.6401749,39.722772 C32.583325,44.7821552 25.2844024,46.8933754 18.3075053,45.3147649 C11.3306081,43.7361543 5.65147498,38.6884861 3.26517489,31.9449968 C2.88134133,30.8603145 3.44949181,29.6698472 4.53417451,29.2860138 C5.61885721,28.9021804 6.80932487,29.4703306 7.19315844,30.555013 C9.10219851,35.9498044 13.645505,39.987939 19.2270227,41.2508274 C24.8085404,42.5137158 30.6476785,40.8247397 34.7400488,36.7317675 L40.5738584,31.25 L33.3333333,31.25 C32.1827401,31.25 31.25,30.3172599 31.25,29.1666667 C31.25,28.0160734 32.1827401,27.0833333 33.3333333,27.0833333 L45.8333333,27.0833333 C46.7079309,27.0833333 47.4566543,27.6222648 47.7655273,28.3861516 L47.7759038,28.4123535 Z M0.140769171,17.4164454 C0.0461485043,17.1725293 -0.000625115164,16.9147746 0,16.6573886 L0,4.1621323 C0,3.01153907 0.932746412,2.07879896 2.08333964,2.07879896 C3.23393287,2.07879896 4.16667297,3.01153907 4.16667297,4.1621323 L4.16667297,11.8462615 L10.2764981,6.10602697 C15.333348,1.0466438 22.6322706,-1.06457644 29.6091677,0.514034098 C36.5860648,2.09264463 42.265198,7.14031286 44.6514981,13.8838021 C45.0353316,14.9684845 44.4671812,16.1589517 43.3824985,16.5427852 C42.2978158,16.9266186 41.1073481,16.3584683 40.7235145,15.273786 C38.8144745,9.87899456 34.2711679,5.84085998 28.6896502,4.57797155 C23.1081326,3.31508312 17.2689945,5.00405931 13.1766242,9.09703145 L7.3428146,14.578799 L14.5833396,14.578799 C15.7339329,14.578799 16.666673,15.5115391 16.666673,16.6621323 C16.666673,17.8127255 15.7339329,18.7454656 14.5833396,18.7454656 L2.08333964,18.7454656 C1.20874206,18.7454656 0.460018669,18.2065341 0.151145705,17.4426474 L0.140769171,17.4164454 Z" id="path-1"></path>
    </defs>
    <g id="Status" stroke="none" stroke-width="1" fill="none" fill-rule="evenodd">
        <mask id="mask-2" fill="white">
            <use xlink:href="#path-1"></use>
        </mask>
        <use id="Combined-Shape" fill="#000000" xlink:href="#path-1"></use>
    </g>
</svg>