<?xml version="1.0" encoding="UTF-8"?>
<svg width="49px" height="49px" viewBox="0 0 49 49" version="1.1" xmlns="http://www.w3.org/2000/svg" xmlns:xlink="http://www.w3.org/1999/xlink">
    <title>Tel</title>
    <g id="Tel" stroke="none" stroke-width="1" fill="none" fill-rule="evenodd">
        <path d="M4.06665478,11.6958662 C4.05861788,11.8737922 4.04455331,12.1612883 4.02245184,12.555339 C4.00637805,12.8498718 4.02245184,13.4238589 4.1912267,14.4883988 C4.33388163,15.3850651 4.61416844,16.4857934 5.02405023,17.7604267 C5.43192279,19.0280234 6.05980542,20.4755565 6.89262895,22.0658324 C7.73047555,23.6711868 8.86367813,25.4534619 10.2580799,27.3644066 C11.646454,29.2673095 13.4336591,31.3008924 15.5694647,33.4088624 C18.2688577,36.1380654 20.8175589,38.2922761 23.1633285,39.8272643 C25.5251718,41.3723049 27.648922,42.5403836 29.4763116,43.2973228 C31.2705491,44.0421992 32.7804812,44.5126475 33.9639144,44.6935891 C36.2885871,45.0474305 36.6874182,44.9981742 37.0088941,44.9660068 C37.1073461,44.9559545 37.1907289,44.9489178 37.2610517,44.9428864 C37.4820664,44.9056929 37.7221687,44.8252744 37.9743264,44.7036414 C38.1953411,44.5960816 38.3671298,44.4774644 38.4736187,44.3598523 C38.4997386,44.3307006 38.5258585,44.3035593 38.552983,44.2754129 L44.8870631,37.9866858 C44.9463352,37.9273772 44.9714505,37.8942045 44.9784828,37.8600267 C44.9322706,37.7916709 44.8177448,37.705221 44.7202975,37.6439019 L35.7782441,32.3604062 C35.6888336,32.3252231 35.6034416,32.2840086 35.5240772,32.2387732 C35.5331187,32.2468151 35.4427036,32.2277157 35.2548411,32.2287209 C35.0036881,32.2287209 34.8188394,32.2930557 34.6289677,32.4488666 L31.972773,35.1529388 C31.677417,35.4504872 31.3057105,35.6726433 30.8596627,35.8194071 C30.3523335,35.9892912 29.9464702,36.040558 29.5275469,35.9531029 L28.9328164,35.8344856 C28.3370814,35.7158683 27.6268206,35.4374192 26.6965496,34.9619448 C25.8516708,34.5307006 24.8520816,33.8913735 23.6425285,33.0097856 C22.4480446,32.1392553 21.0817719,30.9199097 19.5808813,29.3849215 C18.0548753,27.8911478 16.8764652,26.5682634 16.0084802,25.3710329 C15.1435091,24.1768181 14.511608,23.1725921 14.0766109,22.3020617 C13.5501941,21.2877834 13.2076214,20.3599549 13.042865,19.4924403 C13.0187543,19.3687968 13.0077035,19.2431429 13.0077035,19.1164837 C13.0077035,18.7988306 13.0649664,18.4731357 13.1825061,18.1213047 C13.3291794,17.6800082 13.540148,17.3231511 13.8284717,17.0326392 L16.167209,14.6924608 C16.3028316,14.5567545 16.3842052,14.397928 16.431422,14.1757719 C16.4655788,14.0109139 16.436445,13.9576367 16.4073113,13.9063699 L11.333015,4.27424351 C11.2697244,4.18276746 11.2014108,4.10536465 11.1260648,4.03901939 C11.1079818,4.05208739 11.0848757,4.07118679 11.0567466,4.09832803 L4.72367117,10.4363114 C4.69855587,10.4614422 4.67243595,10.4855678 4.64631603,10.5096933 C4.52676718,10.6172531 4.40721832,10.7901528 4.30173404,11.008288 C4.18620364,11.2495435 4.10683927,11.4807467 4.06665478,11.6958662 M36.5879615,49 C35.8756915,49 34.8188394,48.891435 33.356124,48.6682737 C31.8311227,48.4340548 30.0589867,47.8922351 27.9372457,47.0126577 C25.8808045,46.1592163 23.535035,44.8745307 20.9652369,43.1927787 C18.3803697,41.5019797 15.6106538,39.1678326 12.7304306,36.253667 C10.4579977,34.0120012 8.52813765,31.8135604 7.01318242,29.7357473 C5.50124103,27.6649708 4.26255416,25.7108011 3.33127864,23.9305365 C2.39397544,22.1392143 1.67668231,20.4765617 1.19949151,18.9928403 C0.726319152,17.5221869 0.397810956,16.2194071 0.22300843,15.1196841 C0.0401690061,13.9666838 -0.029149237,13.054939 0.0110352517,12.3331829 C0.0371551694,11.8466509 0.0532289649,11.5561391 0.0552381894,11.4636578 C0.0572474138,11.3852498 0.0642796994,11.2847266 0.0753304338,11.2083291 C0.167754758,10.5609601 0.371691038,9.90655452 0.683120826,9.26119602 C1.00861519,8.58568058 1.42251542,8.0147092 1.9137708,7.56134988 L8.21469864,1.2555339 C9.03546682,0.434259924 10.0541436,0 11.1592171,0 C12.0040959,0 12.7997488,0.263370602 13.4617883,0.760960098 C13.9691174,1.14093753 14.4061237,1.61641194 14.7597472,2.17029439 C14.788881,2.21653503 14.8160055,2.2637809 14.8421254,2.312032 L19.936514,11.9843676 C20.4337971,12.8679659 20.589512,13.928485 20.3634742,15.0040825 C20.1555195,15.9912196 19.7004301,16.8436558 19.0092569,17.5352549 L17.1688073,19.3768387 C17.273287,19.6703662 17.4279973,20.0352652 17.6570489,20.4765617 C18.0016309,21.1671556 18.5380938,22.0105447 19.2624192,23.0107498 C19.9847354,24.0089445 21.0486197,25.1971279 22.4219246,26.5421274 C23.7972388,27.948446 24.9937319,29.0200226 26.0093949,29.760878 C27.0310855,30.5057544 27.876969,31.0505898 28.5239393,31.3813109 C29.0855175,31.6678018 29.4140257,31.7954662 29.5807913,31.8517592 L31.8210766,29.5698841 C31.8532242,29.5377167 31.8863764,29.5065545 31.9205332,29.4753923 C32.8558272,28.6460765 34.0081174,28.2077957 35.2548411,28.2077957 C36.0213603,28.2077957 36.6984689,28.3445071 37.2721025,28.61793 C37.3916513,28.6601498 37.5051725,28.7114166 37.6086476,28.7727357 L46.7998448,34.2050056 C48.2746155,35.1187609 48.7739078,36.2888501 48.9386642,37.1131398 C48.9477057,37.1583752 48.954738,37.2026054 48.9607656,37.2478408 C49.138582,38.6069135 48.7096126,39.8483742 47.7220788,40.8355113 L41.4191417,47.0950867 C40.9660616,47.5856396 40.3954419,47.9987896 39.7213471,48.3244846 C39.0783952,48.635101 38.4223835,48.8411735 37.7744086,48.9326495 C37.711118,48.9416966 37.6468228,48.947728 37.5825276,48.9507437 L37.4047113,48.9668274 C37.1957519,48.9879372 36.923502,49 36.5879615,49" id="Fill-1" fill="#AA1924"></path>
    </g>
</svg>