<?xml version="1.0" encoding="UTF-8"?>
<svg width="70px" height="70px" viewBox="0 0 70 70" version="1.1" xmlns="http://www.w3.org/2000/svg" xmlns:xlink="http://www.w3.org/1999/xlink">
    <title>VK</title>
    <g id="VK" stroke="none" stroke-width="1" fill="none" fill-rule="evenodd">
        <path d="M57.065525,50 L51.9330931,50 C49.9883053,50 49.3908868,48.4553477 45.9024149,44.918461 C42.8630662,41.978821 41.5171092,41.5806565 40.769983,41.5806565 C39.7234415,41.5806565 39.4240261,41.8785739 39.4240261,43.3243911 L39.4240261,47.9569361 C39.4240261,49.2022591 39.0257471,49.9505824 35.7364147,49.9505824 C30.3045674,49.9505824 24.2738892,46.6621956 20.0382912,40.5344158 C13.6587659,31.5658313 11.9145299,24.8408048 11.9145299,23.4458172 C11.9145299,22.6974938 12.2139453,22 13.6587659,22 L18.7911978,22 C20.087723,22 20.5862779,22.5986587 21.0848327,23.9936463 C23.6256266,31.3173315 27.862637,37.7444405 29.606873,37.7444405 C30.2537232,37.7444405 30.5531386,37.4451112 30.5531386,35.8016237 L30.5531386,28.2280268 C30.3539991,24.7405577 28.5094873,24.4412284 28.5094873,23.1959054 C28.5094873,22.5986587 29.0080422,22 29.8060125,22 L37.8789296,22 C38.974903,22 39.3745943,22.5986587 39.3745943,23.8933992 L39.3745943,34.1073067 C39.3745943,35.2029651 39.8717368,35.6011295 40.1711522,35.6011295 C40.8194148,35.6011295 41.3674015,35.2029651 42.5636508,34.0070597 C46.2512621,29.8729262 48.8923319,23.4952347 48.8923319,23.4952347 C49.2411791,22.7483233 49.8400099,22.0508295 51.1351228,22.0508295 L56.2675547,22.0508295 C57.8126512,22.0508295 58.1614983,22.8471585 57.8126512,23.9442287 C57.1658009,26.9332863 50.8865515,35.8016237 50.8865515,35.8016237 C50.3371525,36.6981998 50.138013,37.0963643 50.8865515,38.0931874 C51.4345382,38.8400988 53.2282059,40.3847511 54.4244552,41.7797388 C56.6164019,44.2703848 58.311206,46.3628662 58.7603291,47.8072714 C59.258884,49.2530886 58.5103455,50 57.065525,50 M45.6595299,0 L24.1695299,0 C4.55832991,0 -0.0854700855,4.6438 -0.0854700855,24.255 L-0.0854700855,45.745 C-0.0854700855,65.3562 4.55832991,70 24.1695299,70 L45.6595299,70 C65.2707299,70 69.9145299,65.3562 69.9145299,45.745 L69.9145299,24.255 C69.9145299,4.6438 65.2217299,0 45.6595299,0" id="Fill-3" fill="#AA1924"></path>
    </g>
</svg>