<svg width="71" height="70" viewBox="0 0 71 70" fill="none" xmlns="http://www.w3.org/2000/svg">
<path fill-rule="evenodd" clip-rule="evenodd" d="M58.0655 50H52.9331C50.9883 50 50.3909 48.4553 46.9024 44.9185C43.8631 41.9788 42.5171 41.5807 41.77 41.5807C40.7235 41.5807 40.424 41.8786 40.424 43.3244V47.9569C40.424 49.2023 40.0258 49.9506 36.7364 49.9506C31.3046 49.9506 25.2739 46.6622 21.0383 40.5344C14.6588 31.5658 12.9146 24.8408 12.9146 23.4458C12.9146 22.6975 13.214 22 14.6588 22H19.7912C21.0877 22 21.5863 22.5987 22.0849 23.9936C24.6256 31.3173 28.8627 37.7444 30.6069 37.7444C31.2537 37.7444 31.5532 37.4451 31.5532 35.8016V28.228C31.354 24.7406 29.5095 24.4412 29.5095 23.1959C29.5095 22.5987 30.0081 22 30.806 22H38.8789C39.9749 22 40.3746 22.5987 40.3746 23.8934V34.1073C40.3746 35.203 40.8718 35.6011 41.1712 35.6011C41.8194 35.6011 42.3674 35.203 43.5637 34.0071C47.2513 29.8729 49.8924 23.4952 49.8924 23.4952C50.2412 22.7483 50.84 22.0508 52.1351 22.0508H57.2676C58.8127 22.0508 59.1615 22.8472 58.8127 23.9442C58.1658 26.9333 51.8866 35.8016 51.8866 35.8016C51.3372 36.6982 51.138 37.0964 51.8866 38.0932C52.4346 38.8401 54.2282 40.3848 55.4245 41.7797C57.6164 44.2704 59.3112 46.3629 59.7603 47.8073C60.2589 49.2531 59.5104 50 58.0655 50ZM46.6595 0H25.1695C5.55835 0 0.914551 4.6438 0.914551 24.255V45.745C0.914551 65.3562 5.55835 70 25.1695 70H46.6595C66.2708 70 70.9146 65.3562 70.9146 45.745V24.255C70.9146 4.6438 66.2217 0 46.6595 0Z" fill="#AA1924"/>
</svg>
